#!OML:ASF H:\BabyWalks\Project 1\Capture day 1\Session 1\baby.ASF
:FULLY-SPECIFIED
:DEGREES
598
root -0.202338 17.6496 -0.891648 -146.876 85.4972 -151.498
lowerback 19.3575 0.144515 0.919347
upperback 7.30939 0.912714 1.24259
thorax -2.96677 0.657269 0.589166
lowerneck -0.300085 -0.933806 7.66644
upperneck -4.31939 -1.46298 -9.64415
head -1.49814 -0.686409 -4.59
rclavicle -7.55382e-015 9.34288e-015
rhumerus -40.3363 8.03947 -78.8889
rradius 46.7439
rwrist -2.38645
rhand -14.6453 -16.8706
rfingers 7.12502
rthumb 11.5068 -46.5348
lclavicle -7.55382e-015 9.34288e-015
lhumerus -40.9382 0.476502 59.5276
lradius 67.0163
lwrist 2.82309
lhand 5.30367 8.31115
lfingers 7.12502
lthumb 30.6596 35.777
rfemur -14.4009 17.9796 17.2009
rtibia 29.2605
rfoot -20.7038 2.85713
rtoes -3.96447
lfemur -10.4644 -6.63306 -12.9497
ltibia 30.452
lfoot -29.0254 -9.49294
ltoes 1.0966
599
root -0.18913 17.6455 -0.914642 -149.285 85.7229 -154.092
lowerback 19.4901 0.120712 0.755195
upperback 7.38198 0.863782 1.29669
thorax -2.95988 0.633651 0.74945
lowerneck -0.290265 -0.843417 7.77066
upperneck -4.41421 -1.36922 -10.1891
head -1.36866 -0.619066 -4.31926
rclavicle 8.34896e-015 1.0138e-014
rhumerus -40.3798 8.04143 -78.7818
rradius 46.9169
rwrist -3.01275
rhand -14.9461 -16.9951
rfingers 7.12502
rthumb 11.2167 -46.6752
lclavicle 8.34896e-015 1.0138e-014
lhumerus -40.5322 0.00151373 60.082
lradius 67.6001
lwrist 3.28069
lhand 5.03025 8.33302
lfingers 7.12502
lthumb 30.3988 35.8473
rfemur -14.7758 17.9098 16.7433
rtibia 29.726
rfoot -21.0187 3.03868
rtoes -3.9259
lfemur -10.4751 -6.44619 -13.2997
ltibia 30.235
lfoot -29.0304 -9.67307
ltoes 1.39722
600
root -0.175791 17.641 -0.936678 -152.165 85.9804 -157.162
lowerback 19.6233 0.101621 0.537763
upperback 7.47209 0.8112 1.33591
thorax -2.93421 0.60806 0.925353
lowerneck -0.241488 -0.744731 7.91537
upperneck -4.44998 -1.23977 -10.3448
head -1.37654 -0.55254 -4.39299
rclavicle -1.35174e-014 -1.2921e-014
rhumerus -40.4001 8.02609 -78.6955
rradius 47.0957
rwrist -3.62753
rhand -15.152 -17.1155
rfingers 7.12502
rthumb 11.0182 -46.8063
lclavicle -1.35174e-014 -1.2921e-014
lhumerus -40.1585 -0.504941 60.6398
lradius 68.2392
lwrist 3.67087
lhand 4.78398 8.35264
lfingers 7.12502
lthumb 30.1639 35.9101
rfemur -15.2093 17.8439 16.2524
rtibia 30.2758
rfoot -21.3344 3.2405
rtoes -3.90126
lfemur -10.4786 -6.22818 -13.6832
ltibia 30.001
lfoot -29.0177 -9.85199
ltoes 1.72398
601
root -0.162292 17.6364 -0.957372 -155.601 86.2668 -160.796
lowerback 19.7604 0.0882088 0.270809
upperback 7.57782 0.756748 1.35961
thorax -2.89323 0.58122 1.11364
lowerneck -0.19679 -0.633131 8.05279
upperneck -4.50652 -1.09264 -10.4369
head -1.38755 -0.478292 -4.44632
rclavicle -9.93923e-015 -1.51076e-014
rhumerus -40.3997 7.9947 -78.634
rradius 47.2748
rwrist -4.22284
rhand -15.2743 -17.2158
rfingers 7.12502
rthumb 10.9002 -46.9129
lclavicle -9.93923e-015 -1.51076e-014
lhumerus -39.8146 -1.03377 61.1891
lradius 68.926
lwrist 3.99028
lhand 4.56524 8.35813
lfingers 7.12502
lthumb 29.9552 35.9535
rfemur -15.7049 17.7808 15.7362
rtibia 30.9081
rfoot -21.6351 3.46117
rtoes -3.89858
lfemur -10.4761 -5.98504 -14.0944
ltibia 29.7508
lfoot -28.9882 -10.0205
ltoes 2.06383
602
root -0.148601 17.6317 -0.976365 -159.642 86.5727 -165.041
lowerback 19.9032 0.0796492 -0.0389312
upperback 7.69741 0.700759 1.37315
thorax -2.83947 0.553134 1.31609
lowerneck -0.165243 -0.507714 8.1828
upperneck -4.58195 -0.927343 -10.481
head -1.39973 -0.395995 -4.48406
rclavicle 7.7526e-015 3.97569e-015
rhumerus -40.3808 7.95373 -78.5968
rradius 47.4578
rwrist -4.79476
rhand -15.3135 -17.2992
rfingers 7.12502
rthumb 10.8623 -46.9983
lclavicle 7.7526e-015 3.97569e-015
lhumerus -39.5007 -1.57223 61.7273
lradius 69.6512
lwrist 4.2373
lhand 4.36374 8.36229
lfingers 7.12502
lthumb 29.7629 35.9922
rfemur -16.2627 17.7198 15.2106
rtibia 31.6188
rfoot -21.9091 3.69168
rtoes -3.93564
lfemur -10.4703 -5.72254 -14.5181
ltibia 29.4872
lfoot -28.9444 -10.1762
ltoes 2.41321
603
root -0.134377 17.627 -0.993354 -164.304 86.8945 -169.91
lowerback 20.0473 0.077499 -0.38417
upperback 7.83442 0.647073 1.38308
thorax -2.76675 0.525608 1.53474
lowerneck -0.156993 -0.367135 8.31362
upperneck -4.67731 -0.743231 -10.501
head -1.41176 -0.305187 -4.51487
rclavicle 1.5704e-014 1.51076e-014
rhumerus -40.3398 7.90413 -78.5815
rradius 47.6392
rwrist -5.32543
rhand -15.2866 -17.3654
rfingers 7.12502
rthumb 10.8883 -47.0631
lclavicle 1.5704e-014 1.51076e-014
lhumerus -39.2097 -2.10746 62.254
lradius 70.4008
lwrist 4.40087
lhand 4.16272 8.36653
lfingers 7.12502
lthumb 29.571 36.0306
rfemur -16.8789 17.6611 14.6939
rtibia 32.4018
rfoot -22.1443 3.93654
rtoes -3.99514
lfemur -10.4579 -5.44326 -14.9384
ltibia 29.2138
lfoot -28.8922 -10.3172
ltoes 2.76603
604
root -0.119435 17.6223 -1.00819 -169.794 87.2274 -175.613
lowerback 20.1965 0.0810666 -0.754148
upperback 7.98237 0.596264 1.38717
thorax -2.68368 0.498777 1.7609
lowerneck -0.165701 -0.211464 8.45813
upperneck -4.7982 -0.540803 -10.517
head -1.42644 -0.205711 -4.54713
rclavicle -1.68967e-014 -2.22639e-014
rhumerus -40.2906 7.84479 -78.5972
rradius 47.815
rwrist -5.79107
rhand -15.2094 -17.4131
rfingers 7.12502
rthumb 10.9628 -47.1068
lclavicle -1.68967e-014 -2.22639e-014
lhumerus -38.9447 -2.63623 62.7595
lradius 71.1596
lwrist 4.47588
lhand 3.95706 8.34645
lfingers 7.12502
lthumb 29.3747 36.0451
rfemur -17.5486 17.6032 14.1951
rtibia 33.2477
rfoot -22.336 4.18937
rtoes -4.09811
lfemur -10.4415 -5.14396 -15.3475
ltibia 28.9363
lfoot -28.8362 -10.4489
ltoes 3.11803
605
root -0.103382 17.6175 -1.02085 -176.512 87.5651 -182.545
lowerback 20.3494 0.0890941 -1.14339
upperback 8.1395 0.547558 1.38574
thorax -2.59125 0.472145 1.99199
lowerneck -0.184956 -0.0425567 8.61542
upperneck -4.9533 -0.322925 -10.5411
head -1.44753 -0.0984573 -4.58434
rclavicle 1.39149e-014 3.10104e-014
rhumerus -40.2353 7.78502 -78.6483
rradius 47.9759
rwrist -6.17804
rhand -15.1077 -17.4424
rfingers 7.12502
rthumb 11.0609 -47.131
lclavicle 1.39149e-014 3.10104e-014
lhumerus -38.7066 -3.13997 63.238
lradius 71.9117
lwrist 4.44499
lhand 3.74604 8.28327
lfingers 7.12502
lthumb 29.1732 36.0171
rfemur -18.2619 17.5518 13.7191
rtibia 34.1463
rfoot -22.4867 4.43932
rtoes -4.25821
lfemur -10.4199 -4.8235 -15.7427
ltibia 28.659
lfoot -28.7834 -10.5694
ltoes 3.45037
606
root -0.0856334 17.6124 -1.03138 -184.935 87.8958 -191.181
lowerback 20.5037 0.100061 -1.53768
upperback 8.30404 0.501501 1.37913
thorax -2.49017 0.446059 2.22013
lowerneck -0.211632 0.134884 8.77234
upperneck -5.1416 -0.0955985 -10.5697
head -1.47576 0.0138242 -4.62317
rclavicle 3.57812e-015 -1.19271e-015
rhumerus -40.1791 7.73277 -78.7384
rradius 48.1163
rwrist -6.48829
rhand -15 -17.4574
rfingers 7.12502
rthumb 11.1648 -47.1403
lclavicle 3.57812e-015 -1.19271e-015
lhumerus -38.4887 -3.60238 63.6851
lradius 72.6323
lwrist 4.29039
lhand 3.53143 8.16182
lfingers 7.12502
lthumb 28.9683 35.931
rfemur -19.0036 17.5093 13.278
rtibia 35.0855
rfoot -22.6005 4.68629
rtoes -4.42242
lfemur -10.3879 -4.48773 -16.1153
ltibia 28.3846
lfoot -28.7381 -10.6752
ltoes 3.77174
607
root -0.0658084 17.607 -1.03999 -195.986 88.2049 -202.443
lowerback 20.6598 0.114433 -1.92221
upperback 8.46904 0.460584 1.36152
thorax -2.38822 0.421959 2.43005
lowerneck -0.231601 0.314309 8.9362
upperneck -5.36638 0.133074 -10.6058
head -1.51518 0.127342 -4.66581
rclavicle 4.57205e-015 7.55382e-015
rhumerus -40.1402 7.6753 -78.8787
rradius 48.2261
rwrist -6.69525
rhand -14.9 -17.459
rfingers 7.12502
rthumb 11.2612 -47.1368
lclavicle 4.57205e-015 7.55382e-015
lhumerus -38.2899 -4.0198 64.0912
lradius 73.3012
lwrist 3.99807
lhand 3.31109 7.95785
lfingers 7.12502
lthumb 28.7578 35.763
rfemur -19.7643 17.4828 12.8742
rtibia 36.0542
rfoot -22.6853 4.91727
rtoes -4.60488
lfemur -10.3414 -4.14052 -16.4646
ltibia 28.1121
lfoot -28.7022 -10.7557
ltoes 4.07024
608
root -0.0433078 17.6014 -1.0469 -211.082 88.4537 -217.751
lowerback 20.817 0.125798 -2.29964
upperback 8.62935 0.415546 1.33281
thorax -2.2902 0.395206 2.62515
lowerneck -0.256517 0.497999 9.09533
upperneck -5.61052 0.366069 -10.6558
head -1.55845 0.243515 -4.71222
rclavicle 5.96354e-015 5.1684e-015
rhumerus -40.1185 7.63796 -79.0704
rradius 48.2959
rwrist -6.79586
rhand -14.8222 -17.4528
rfingers 7.12502
rthumb 11.3362 -47.1264
lclavicle 5.96354e-015 5.1684e-015
lhumerus -38.1201 -4.35682 64.4545
lradius 73.8997
lwrist 3.55842
lhand 3.08625 7.67265
lfingers 7.12502
lthumb 28.543 35.5141
rfemur -20.5343 17.4684 12.4999
rtibia 37.0403
rfoot -22.7562 5.12264
rtoes -4.85687
lfemur -10.2782 -3.79087 -16.7995
ltibia 27.8377
lfoot -28.677 -10.8028
ltoes 4.34144
